<?xml version="1.0" encoding="UTF-8"?>
<svg version="1.1" xmlns="http://www.w3.org/2000/svg" width="588" height="588">
<path d="M0 0 C1.13091064 0.29801514 1.13091064 0.29801514 2.28466797 0.60205078 C23.00698224 6.23288521 40.67610469 16.06133141 57 30 C57.73347656 30.60972656 58.46695312 31.21945313 59.22265625 31.84765625 C83.69895686 52.55111669 99.29687369 85.25953832 102 117 C102.19397525 121.92573418 102.25611062 126.85241743 102.31640625 131.78125 C102.33701323 133.20471753 102.35801058 134.62817945 102.37937927 136.05163574 C102.43421385 139.77347232 102.48379111 143.49536053 102.53222656 147.21728516 C102.58272607 151.02511109 102.63826266 154.83286331 102.69335938 158.640625 C102.80046761 166.09368734 102.90201487 173.54681154 103 181 C104.15250244 181.39469482 105.30500488 181.78938965 106.49243164 182.19604492 C108.02759367 182.72810146 109.56266368 183.26042354 111.09765625 183.79296875 C111.85453735 184.0513855 112.61141846 184.30980225 113.39123535 184.5760498 C124.74754327 188.53313308 133.41546584 194.65475599 142 203 C142.63679688 203.57492188 143.27359375 204.14984375 143.9296875 204.7421875 C158.77327416 218.53023022 164.97705982 239.33198628 166 259 C166.18494042 266.48645144 166.13693004 273.9771945 166.12939453 281.46533203 C166.13075134 283.73343433 166.13253284 286.0015364 166.13470459 288.26963806 C166.13924723 294.40424345 166.137502 300.53883193 166.1343255 306.6734376 C166.13178365 313.11520843 166.13414469 319.55697788 166.13571167 325.99874878 C166.13764506 337.51301166 166.13454644 349.02726596 166.12945233 360.54152749 C166.12499159 370.94533202 166.12575602 381.34912537 166.13037109 391.75292969 C166.13574458 403.87187976 166.1377025 415.99082107 166.13475883 428.10977256 C166.13320751 434.51084846 166.13297051 440.9119167 166.13629532 447.3129921 C166.13920696 453.33935108 166.13713845 459.36568922 166.13140106 465.39204597 C166.13009064 467.59047346 166.13043795 469.78890273 166.13266373 471.98732948 C166.14185823 482.00051666 166.09980223 491.99443999 165.56613159 501.99557495 C165.52896691 502.70383112 165.49180224 503.41208729 165.45351136 504.14180577 C164.72069431 516.16499042 161.58103229 526.37404442 156 537 C155.55914062 537.86238281 155.11828125 538.72476563 154.6640625 539.61328125 C145.00168964 557.12284132 127.90803226 570.37930492 108.94140625 576.35546875 C92.94246156 580.84761305 76.17679311 580.14974983 59.70068359 580.14526367 C57.48626652 580.14826171 55.27184997 580.15166571 53.05743408 580.15544128 C47.08189346 580.16422008 41.1063672 580.16661681 35.13082075 580.16725707 C31.38622993 580.16797108 27.64164269 580.17011201 23.89705276 580.17275429 C11.47509604 580.18151254 -0.94685379 580.18617652 -13.36881323 580.18542381 C-14.03584998 580.18538386 -14.70288673 580.1853439 -15.39013672 580.18530273 C-16.05800584 580.18526185 -16.72587497 580.18522097 -17.41398256 580.18517885 C-28.22382235 580.18477289 -39.03362723 580.19433476 -49.84345694 580.2084411 C-60.99386707 580.22287486 -72.14426286 580.22952518 -83.29468286 580.22884732 C-89.53429697 580.2285939 -95.77387151 580.23135834 -102.01347733 580.24202538 C-107.88887957 580.25179693 -113.76420514 580.25172431 -119.63961029 580.24450874 C-121.77872964 580.24347405 -123.917854 580.24575824 -126.05696487 580.2518692 C-136.59911835 580.28000169 -147.03776054 580.07021697 -157.53988647 579.09028625 C-158.3989008 579.01013659 -159.25791513 578.92998692 -160.14296019 578.84740847 C-166.82542409 578.15439402 -172.83528493 576.73228369 -179 574 C-180.13695312 573.505 -181.27390625 573.01 -182.4453125 572.5 C-190.63422101 568.67968847 -197.33264547 564.07281336 -204 558 C-204.70640625 557.38640625 -205.4128125 556.7728125 -206.140625 556.140625 C-222.06904539 541.46641094 -228.88959507 520.31141303 -230.16848707 499.22152138 C-230.44087883 491.97283288 -230.40905294 484.72330583 -230.38818359 477.47070312 C-230.39225858 475.06525943 -230.39760562 472.65981761 -230.40411377 470.25437927 C-230.41628039 464.44659044 -230.41462855 458.63893296 -230.40587585 452.8311404 C-230.39905103 448.10348681 -230.39820308 443.37586574 -230.4014473 438.64820862 C-230.401907 437.97075444 -230.40236669 437.29330025 -230.40284032 436.59531716 C-230.40379967 435.21831619 -230.40477232 433.84131523 -230.4057581 432.46431428 C-230.41427628 419.60611729 -230.40453434 406.74798486 -230.388357 393.88979846 C-230.37495708 382.89964456 -230.37728618 371.90958578 -230.39111328 360.91943359 C-230.40723267 348.10163485 -230.41345264 335.28389243 -230.40427649 322.46608496 C-230.40332102 321.09465377 -230.40237791 319.72322258 -230.4014473 318.35179138 C-230.40098447 317.67733444 -230.40052164 317.0028775 -230.40004479 316.30798247 C-230.39747389 311.5958157 -230.40178444 306.8836852 -230.40888596 302.17152405 C-230.41761905 295.80849319 -230.41141894 289.44564011 -230.39420319 283.08262825 C-230.39027199 280.76206315 -230.39131378 278.44148282 -230.39799118 276.120924 C-230.47114163 248.09272688 -227.08825616 223.96649291 -207.25 202.75 C-199.63947842 195.63386269 -191.16267895 190.2280877 -181.6875 186 C-181.04232422 185.70923584 -180.39714844 185.41847168 -179.73242188 185.11889648 C-178.78786133 184.71973022 -178.78786133 184.71973022 -177.82421875 184.3125 C-177.00570435 183.96638672 -177.00570435 183.96638672 -176.1706543 183.61328125 C-172.82628363 182.66838651 -169.45209458 182.38364076 -166 182 C-166.00444122 181.2315123 -166.00888245 180.4630246 -166.01345825 179.67124939 C-166.05384659 172.36200588 -166.0841406 165.0528179 -166.10362434 157.74349117 C-166.11397843 153.98739221 -166.12798059 150.23138689 -166.15087891 146.4753418 C-166.1729111 142.83782112 -166.18463122 139.20038943 -166.18975449 135.56280708 C-166.19339663 134.18802048 -166.20050502 132.81323769 -166.21146011 131.43848991 C-166.45332336 99.77327493 -156.70586156 69.22399822 -136 45 C-135.34644531 44.22897949 -135.34644531 44.22897949 -134.6796875 43.44238281 C-113.29409476 18.47689187 -81.58304889 0.40368568 -48.55859375 -2.83007812 C-32.42669566 -3.90143319 -15.70981677 -4.20414188 0 0 Z M-101 61 C-101.92039063 61.82564453 -101.92039063 61.82564453 -102.859375 62.66796875 C-117.43753072 76.20960422 -126.2304126 96.61288822 -129 116 C-129 137.12 -129 158.24 -129 180 C-64.98 180 -0.96 180 65 180 C67.60596644 112.87425516 67.60596644 112.87425516 37 61 C36.42894531 60.35675781 35.85789062 59.71351562 35.26953125 59.05078125 C26.20640769 49.05571697 13.43999887 42.65147784 1 38 C-0.23169922 37.52626953 -0.23169922 37.52626953 -1.48828125 37.04296875 C-36.34892858 24.47332149 -75.07353921 36.20668872 -101 61 Z " fill="#29507B" transform="translate(328,6)"/>
<path d="M0 0 C2.63601301 1.47357449 4.7431742 3.08116114 7.0078125 5.08203125 C7.95785156 5.92121094 8.90789062 6.76039063 9.88671875 7.625 C17.727691 14.89762148 24.03243199 23.25039069 30.0078125 32.08203125 C30.39485352 32.65099121 30.78189453 33.21995117 31.18066406 33.80615234 C39.97449099 46.9045691 45.52815373 60.16213629 44.0078125 76.08203125 C42.38991245 81.240448 40.00322129 84.819311 35.3203125 87.58203125 C34.2271875 88.07703125 33.1340625 88.57203125 32.0078125 89.08203125 C31.0178125 89.57703125 31.0178125 89.57703125 30.0078125 90.08203125 C20.89794445 91.13250753 14.32546288 88.55919789 6.9453125 83.39453125 C-0.81245185 77.22533495 -7.39964325 69.40359494 -10.9921875 60.08203125 C-11.37058547 54.71269453 -11.37058547 54.71269453 -9.8671875 52.20703125 C-7.03464394 50.50750512 -5.22871843 50.55361804 -1.9921875 51.08203125 C0.90907161 53.80745647 2.56302512 57.05892837 4.4453125 60.51953125 C8.19309614 67.36775408 12.62654937 73.05885433 20.0078125 76.08203125 C23.06394491 76.45692948 25.94960632 76.40059439 29.0078125 76.08203125 C31.80230021 70.95319236 31.74675697 66.72931777 30.203125 61.19921875 C25.72850847 48.63943304 18.69618275 37.85018677 10.3828125 27.51953125 C9.856875 26.8649292 9.3309375 26.21032715 8.7890625 25.53588867 C1.241032 16.4146983 1.241032 16.4146983 -9.25390625 11.7109375 C-15.95852953 11.52739709 -20.78792918 12.73108375 -25.9921875 17.08203125 C-36.82370442 29.39494568 -40.85020401 41.76408845 -40.13574219 57.98095703 C-38.77740211 77.86169631 -27.58840585 95.34817284 -13.5859375 108.83203125 C-0.49247067 120.19021934 14.57648783 125.17975726 31.6328125 125.33203125 C32.43275635 125.34145752 33.2327002 125.35088379 34.05688477 125.3605957 C51.27189081 125.2664081 65.20594999 115.90413015 77.0078125 104.08203125 C79.26478983 101.54087247 81.27888208 99.0079135 83.0078125 96.08203125 C83.57242188 95.23125 83.57242188 95.23125 84.1484375 94.36328125 C87.0417284 86.68290904 83.78487395 79.82489176 80.8203125 72.70703125 C80.37977539 71.6279248 79.93923828 70.54881836 79.48535156 69.43701172 C73.89605037 56.02462286 67.62567565 42.62491644 60.24804688 30.09277344 C59.68923828 29.13790039 59.13042969 28.18302734 58.5546875 27.19921875 C58.04260742 26.3572998 57.53052734 25.51538086 57.00292969 24.64794922 C55.7245734 21.35169686 55.99430291 19.43993933 57.0078125 16.08203125 C60.0078125 14.08203125 60.0078125 14.08203125 62.3203125 13.51953125 C66.59305976 14.41382719 68.4593905 17.69367058 71.0078125 21.08203125 C72.5614289 23.48774776 73.89498959 25.96931691 75.1953125 28.51953125 C75.56986572 29.24269531 75.94441895 29.96585937 76.33032227 30.7109375 C82.68675962 43.15587153 88.63961026 55.86006047 93.68359375 68.89453125 C94.11679932 70.01279297 94.55000488 71.13105469 94.99633789 72.28320312 C95.81299985 74.41882078 96.61404432 76.56050373 97.39624023 78.70898438 C101.27739609 88.92423367 106.69165164 94.74139432 116.06640625 100.24609375 C118.0078125 102.08203125 118.0078125 102.08203125 118.359375 105.17578125 C118.0078125 108.08203125 118.0078125 108.08203125 116.9453125 109.95703125 C113.77199802 111.79960095 111.62306771 111.55616308 108.0078125 111.08203125 C105.984375 109.95703125 105.984375 109.95703125 103.9453125 108.58203125 C101.47080755 106.92919493 99.94150604 106.06545463 97.0078125 105.33203125 C91.42863186 106.72682641 87.83113809 111.13879643 83.98828125 115.234375 C75.91023994 123.762029 66.40687338 129.40938759 56.0078125 134.64453125 C50.27392131 137.69845156 47.23376089 140.50437523 44.0078125 146.08203125 C42.5756811 148.54352974 41.13818087 151.00181063 39.6953125 153.45703125 C39.31286377 154.10929688 38.93041504 154.7615625 38.53637695 155.43359375 C35.01704034 161.31262755 30.8920909 166.26803024 26.0078125 171.08203125 C25.05648437 172.04882812 25.05648437 172.04882812 24.0859375 173.03515625 C14.65562574 181.99784925 0.40040683 187.96301699 -12.6171875 188.51953125 C-17.85672933 187.84033138 -17.85672933 187.84033138 -19.9921875 185.08203125 C-20.72250246 179.23951156 -20.72250246 179.23951156 -18.95703125 176.44140625 C-15.95861315 174.36695397 -12.65124309 174.27005723 -9.1171875 173.83203125 C2.94837455 172.02882072 13.67500145 166.72465555 21.45703125 157.03125 C25.43020841 151.24136705 29.00706777 145.88456332 31.0078125 139.08203125 C30.110625 139.06785156 29.2134375 139.05367187 28.2890625 139.0390625 C4.93064502 138.14623043 -14.02799083 127.76619358 -30.28515625 111.16796875 C-34.98392094 106.00283788 -38.51623153 100.10883554 -41.9921875 94.08203125 C-42.55808594 93.10492188 -43.12398437 92.1278125 -43.70703125 91.12109375 C-53.05436162 73.75836812 -56.76404744 53.12849851 -51.4296875 33.83203125 C-43.19841833 12.1601932 -24.97264652 -7.66132106 0 0 Z " fill="#F8FAF9" transform="translate(296.9921875,357.91796875)"/>
<path d="M0 0 C26.91653607 18.40565191 43.72337479 42.82925748 57.94140625 71.828125 C60.43311767 76.90162436 63.00207682 81.93408081 65.6015625 86.953125 C66.06925049 87.85748291 66.53693848 88.76184082 67.01879883 89.69360352 C69.47326976 94.36111492 72.02336937 98.68238139 75.2265625 102.890625 C77.46483442 105.87320266 78.48187653 107.82131544 78.6015625 111.578125 C78.0390625 115.078125 78.0390625 115.078125 76.0390625 117.078125 C72.7890625 117.640625 72.7890625 117.640625 69.0390625 117.078125 C64.43511235 113.09454954 61.34259411 107.6217602 58.4765625 102.328125 C58.05874512 101.57007568 57.64092773 100.81202637 57.21044922 100.03100586 C53.41838932 93.03097112 50.05459812 85.84104533 46.6640625 78.640625 C28.97867642 41.29268539 3.94547608 11.7745999 -35.5859375 -2.984375 C-53.38913835 -8.76517904 -70.89116149 -8.6128583 -87.84375 -0.18530273 C-94.85720703 3.49800447 -100.98913909 7.85809554 -106.9609375 13.078125 C-107.66734375 13.64144531 -108.37375 14.20476562 -109.1015625 14.78515625 C-120.89032066 24.3916443 -125.11902362 35.90123503 -127.5234375 50.453125 C-127.63210144 51.09774689 -127.74076538 51.74236877 -127.85272217 52.40652466 C-129.85162203 64.41222193 -130.78631602 76.39032435 -131.24047852 88.54638672 C-131.9045394 104.18066848 -133.8199343 124.78912202 -145.9609375 136.078125 C-151.87828547 140.32861439 -157.29585013 141.63107063 -164.515625 141.546875 C-167.42499593 140.98916811 -168.85989927 140.15512389 -170.9609375 138.078125 C-171.70693682 132.11013045 -171.70693682 132.11013045 -169.73828125 129.38671875 C-167.43481252 127.69075826 -165.92370869 127.71394128 -163.0859375 127.640625 C-158.44425751 127.26336218 -156.10003184 126.75534979 -152.9609375 123.078125 C-145.25328397 111.25046448 -144.44350343 97.76138146 -144.9609375 84.078125 C-147.37272117 84.43387345 -147.37272117 84.43387345 -149.9609375 86.078125 C-151.82661556 88.91073255 -153.11658746 91.97126782 -154.4609375 95.078125 C-155.24434519 96.80619206 -156.02819554 98.53405851 -156.8125 100.26171875 C-157.1827832 101.09300293 -157.55306641 101.92428711 -157.93457031 102.78076172 C-159.18969476 105.59016255 -160.49092326 108.37315631 -161.8359375 111.140625 C-162.18398437 111.87410156 -162.53203125 112.60757813 -162.890625 113.36328125 C-163.9609375 115.078125 -163.9609375 115.078125 -166.9609375 117.078125 C-169.4609375 117.453125 -169.4609375 117.453125 -171.9609375 117.078125 C-173.8359375 115.515625 -173.8359375 115.515625 -174.9609375 113.078125 C-174.61093146 106.88938184 -172.4070027 101.8512602 -169.8359375 96.265625 C-169.42996338 95.3799585 -169.02398926 94.49429199 -168.60571289 93.58178711 C-164.06384422 83.88669587 -159.82356678 75.96335258 -149.9609375 71.078125 C-148.93742187 70.75457031 -147.91390625 70.43101562 -146.859375 70.09765625 C-143.53747198 67.78306884 -143.39583723 67.15382595 -142.53515625 63.3671875 C-142.21281581 61.48355201 -141.91815922 59.59501194 -141.6484375 57.703125 C-141.49310547 56.75695312 -141.33777344 55.81078125 -141.17773438 54.8359375 C-140.88843692 53.06787067 -140.61007398 51.29795343 -140.34643555 49.52587891 C-139.95283518 47.02667858 -139.47294035 44.55552249 -138.9609375 42.078125 C-152.47924664 49.5308276 -162.82365984 67.00973363 -170.55859375 80.0390625 C-171.9609375 82.078125 -171.9609375 82.078125 -174.9609375 84.078125 C-178.0234375 84.328125 -178.0234375 84.328125 -180.9609375 84.078125 C-182.9609375 82.078125 -182.9609375 82.078125 -183.5859375 78.703125 C-183.38382431 72.09283469 -178.80452405 67.13476896 -174.9609375 62.078125 C-174.538125 61.51786621 -174.1153125 60.95760742 -173.6796875 60.38037109 C-170.97316976 56.81699078 -168.20209054 53.31087234 -165.38427734 49.83496094 C-164.44256831 48.67260448 -163.50530964 47.50662695 -162.57275391 46.33691406 C-155.55750437 37.5535124 -148.1018191 30.55518135 -138.9765625 23.90234375 C-132.22169667 18.90340698 -126.36854976 13.5631739 -120.5234375 7.515625 C-85.62406272 -28.24205846 -40.1541433 -25.82063898 0 0 Z " fill="#F9FAF9" transform="translate(344.9609375,325.921875)"/>
<path d="M0 0 C17.18692085 5.82455608 17.18692085 5.82455608 22.74609375 12.26953125 C23.30859375 14.89453125 23.30859375 14.89453125 22.74609375 17.26953125 C19.8241267 20.416265 16.86183501 20.66062706 12.74609375 21.26953125 C13.06247803 21.84695068 13.3788623 22.42437012 13.70483398 23.01928711 C16.87196812 28.80307322 20.02516727 34.59428054 23.17285156 40.38867188 C24.53504611 42.88306909 25.91345947 45.36719176 27.30078125 47.84765625 C37.5614364 66.39192408 46.85339267 88.06778992 41.80859375 109.64453125 C39.24155127 116.81287628 33.46653778 123.16499362 26.74609375 126.70703125 C25.42187843 127.25062937 24.08833765 127.77211145 22.74609375 128.26953125 C22.12992187 128.56472656 21.51375 128.85992187 20.87890625 129.1640625 C10.17908185 133.7229371 -3.73905321 132.30957491 -14.375 128.44921875 C-15.32503906 128.05992187 -16.27507812 127.670625 -17.25390625 127.26953125 C-18.11113281 126.94210937 -18.96835937 126.6146875 -19.8515625 126.27734375 C-34.84395485 119.76717655 -45.63250794 105.23045849 -51.93359375 90.6484375 C-56.33279698 79.39012154 -60.01923016 67.28331046 -56.3359375 55.27734375 C-53.62383411 49.36162308 -50.14491123 45.21503374 -44.25390625 42.26953125 C-34.0509703 41.23144184 -26.91593342 42.71529201 -18.91796875 49.1484375 C-12.72094117 54.89073439 -4.72506944 63.8543817 -3.96875 72.546875 C-4.25390625 75.26953125 -4.25390625 75.26953125 -5.37890625 77.14453125 C-8.35603972 78.93081133 -9.84088919 79.00567218 -13.25390625 78.26953125 C-15.64926217 75.87417533 -17.40594248 73.09696407 -19.25390625 70.26953125 C-23.33940674 64.40819988 -27.71602484 58.53847195 -34.25390625 55.26953125 C-38.42707199 54.84110372 -38.42707199 54.84110372 -42.06640625 56.58203125 C-45.63556839 61.6539985 -44.84065329 68.88900699 -43.828125 74.72265625 C-39.65093999 90.20130499 -30.93005535 104.42712693 -17.125 112.83203125 C-10.29091956 116.2537205 -4.61912302 117.80656009 3.05859375 117.70703125 C3.8902002 117.69800781 4.72180664 117.68898438 5.57861328 117.6796875 C12.98295354 117.47204875 19.61313201 116.65436305 25.515625 111.8203125 C30.3064775 105.94722885 29.62124205 97.65878475 29.01074219 90.50439453 C26.43955317 68.79160459 13.32045277 47.38509193 1.74609375 29.26953125 C1.3476123 28.645625 0.94913086 28.02171875 0.53857422 27.37890625 C-4.19404989 20.06188124 -8.50902831 13.64197022 -16.50390625 9.64453125 C-19.25390625 8.26953125 -19.25390625 8.26953125 -21.25390625 5.26953125 C-21.00390625 1.64453125 -21.00390625 1.64453125 -20.25390625 -1.73046875 C-13.95388486 -4.88047945 -6.26471932 -1.90841288 0 0 Z " fill="#F8F9F9" transform="translate(323.25390625,341.73046875)"/>
<path d="M0 0 C1.13091064 0.29801514 1.13091064 0.29801514 2.28466797 0.60205078 C23.00698224 6.23288521 40.67610469 16.06133141 57 30 C57.73347656 30.60972656 58.46695312 31.21945313 59.22265625 31.84765625 C83.69895686 52.55111669 99.29687369 85.25953832 102 117 C102.19397525 121.92573418 102.25611062 126.85241743 102.31640625 131.78125 C102.33701323 133.20471753 102.35801058 134.62817945 102.37937927 136.05163574 C102.43421385 139.77347232 102.48379111 143.49536053 102.53222656 147.21728516 C102.58272607 151.02511109 102.63826266 154.83286331 102.69335938 158.640625 C102.80046761 166.09368734 102.90201487 173.54681154 103 181 C104.15250244 181.39469482 105.30500488 181.78938965 106.49243164 182.19604492 C108.02759367 182.72810146 109.56266368 183.26042354 111.09765625 183.79296875 C111.85453735 184.0513855 112.61141846 184.30980225 113.39123535 184.5760498 C124.74754327 188.53313308 133.41546584 194.65475599 142 203 C142.63679688 203.57492188 143.27359375 204.14984375 143.9296875 204.7421875 C158.77327416 218.53023022 164.97705982 239.33198628 166 259 C166.18494042 266.48645144 166.13693004 273.9771945 166.12939453 281.46533203 C166.13075134 283.73343433 166.13253284 286.0015364 166.13470459 288.26963806 C166.13924723 294.40424345 166.137502 300.53883193 166.1343255 306.6734376 C166.13178365 313.11520843 166.13414469 319.55697788 166.13571167 325.99874878 C166.13764506 337.51301166 166.13454644 349.02726596 166.12945233 360.54152749 C166.12499159 370.94533202 166.12575602 381.34912537 166.13037109 391.75292969 C166.13574458 403.87187976 166.1377025 415.99082107 166.13475883 428.10977256 C166.13320751 434.51084846 166.13297051 440.9119167 166.13629532 447.3129921 C166.13920696 453.33935108 166.13713845 459.36568922 166.13140106 465.39204597 C166.13009064 467.59047346 166.13043795 469.78890273 166.13266373 471.98732948 C166.14184381 481.98481772 166.10240872 491.96640801 165.58566284 501.9526062 C165.55111657 502.65510187 165.5165703 503.35759754 165.48097718 504.08138096 C165.05386692 511.24283422 164.23625716 519.52748568 161 526 C160.34 526 159.68 526 159 526 C159.21187486 525.2885231 159.42374971 524.5770462 159.64204502 523.8440094 C162.84553753 511.40847773 162.42939832 498.97154245 162.40405273 486.21484375 C162.40976246 483.61483467 162.41672904 481.0148281 162.42485046 478.41482544 C162.44195282 472.11407448 162.44289658 465.81342362 162.43763756 459.5126555 C162.43357931 454.38724145 162.43505894 449.26185676 162.44038582 444.13644409 C162.44113424 443.40413698 162.44188266 442.67182987 162.44265376 441.91733164 C162.44418539 440.42919134 162.44572374 438.94105106 162.44726873 437.45291078 C162.46096225 423.5318987 162.45557783 409.61094299 162.44408352 395.68993223 C162.43414981 382.98056665 162.44709977 370.27134663 162.47101771 357.56200349 C162.49545294 344.47819399 162.50500602 331.39445216 162.49836498 318.31062031 C162.49488317 310.97851131 162.49703614 303.64651423 162.51461601 296.31442261 C162.53094414 289.41958008 162.52608787 282.52501921 162.50731087 275.63018417 C162.50363562 273.10756354 162.50670218 270.58492219 162.51719666 268.06232071 C162.65085426 249.66649558 162.65085426 249.66649558 158 232 C157.67490165 231.18260849 157.3498033 230.36521698 157.01485348 229.52305603 C156.19507456 227.56559954 155.2911394 225.69502163 154.3125 223.8125 C153.9721875 223.14742432 153.631875 222.48234863 153.28125 221.79711914 C148.28220003 212.3795907 141.42941301 204.50691531 133 198 C132.34902344 197.48953125 131.69804687 196.9790625 131.02734375 196.453125 C124.31487571 191.58501734 116.70781829 188.86605345 109 186 C108.10667969 185.66742188 107.21335937 185.33484375 106.29296875 184.9921875 C105.57753906 184.72664062 104.86210937 184.46109375 104.125 184.1875 C101 183 101 183 100 182 C99.89720768 180.01992478 99.8642719 178.03619893 99.8581543 176.0534668 C99.85111984 174.77670578 99.84408539 173.49994476 99.83683777 172.18449402 C99.83502188 171.49576895 99.83320599 170.80704388 99.83133507 170.09744835 C99.82414998 167.92845975 99.80845645 165.75969489 99.78999329 163.59077454 C99.7377059 157.4203347 99.68983132 151.2500009 99.67407227 145.0793457 C99.5655566 108.23530626 93.71203034 74.88123791 69 46 C68.15953125 44.99710938 67.3190625 43.99421875 66.453125 42.9609375 C55.93148053 30.74206327 43.30111143 21.34918226 29 14 C27.989375 13.46890625 26.97875 12.9378125 25.9375 12.390625 C19.46234509 9.18608405 12.8316339 6.85471502 5.9375 4.75 C5.13489746 4.50362793 4.33229492 4.25725586 3.50537109 4.00341797 C-7.46670468 0.79408026 -18.06547584 -0.33317731 -29.49072266 -0.26074219 C-31.4980284 -0.25001054 -33.50443969 -0.26071152 -35.51171875 -0.2734375 C-66.01831742 -0.2132073 -94.80639808 11.46893439 -118 31 C-119.00675781 31.84175781 -120.01351562 32.68351562 -121.05078125 33.55078125 C-145.48635539 54.62695739 -159.24607577 84.25042777 -163 116 C-163.30330135 121.30853086 -163.37089278 126.61052733 -163.4140625 131.92578125 C-163.43282698 133.40936801 -163.45240406 134.89294468 -163.4727478 136.37651062 C-163.52351863 140.23471054 -163.56343434 144.09294487 -163.60089111 147.95129395 C-163.64128117 151.90706501 -163.69221155 155.86269986 -163.7421875 159.81835938 C-163.83829255 167.54547862 -163.92290092 175.27266522 -164 183 C-164.91370361 183.30397705 -165.82740723 183.6079541 -166.76879883 183.92114258 C-189.58573473 191.53943043 -207.99941557 202.73810187 -219.3125 224.875 C-225.57988844 237.63089094 -227.15704685 250.38157831 -227.13371277 264.44108582 C-227.13597833 265.45570226 -227.13824388 266.4703187 -227.14057809 267.51568109 C-227.14687928 270.89612663 -227.14609123 274.27653168 -227.14526367 277.65698242 C-227.1482576 280.08876599 -227.15166067 282.52054907 -227.15544128 284.95233154 C-227.16334684 290.86137373 -227.16649493 296.77040652 -227.16705366 302.67945292 C-227.16753013 307.48699524 -227.16959137 312.29453429 -227.17275429 317.10207558 C-227.18155402 330.75702919 -227.18617479 344.41197498 -227.18542381 358.06693145 C-227.18538386 358.80192659 -227.1853439 359.53692173 -227.18530273 360.29418945 C-227.18526185 361.03009067 -227.18522097 361.76599189 -227.18517885 362.52419315 C-227.18477269 374.4416847 -227.19433664 386.35914462 -227.2084411 398.27662703 C-227.22283663 410.53761635 -227.22970953 422.79859027 -227.22884732 435.05958825 C-227.22851643 441.93343303 -227.23121621 448.80724465 -227.24202538 455.68108177 C-227.25213293 462.14979485 -227.25176268 468.61845615 -227.24450874 475.08717346 C-227.24346701 477.45337336 -227.24580118 479.81957769 -227.2518692 482.18577003 C-227.3134509 507.87521059 -225.32016593 531.76316775 -206.50390625 551.2578125 C-205 553 -205 553 -205 555 C-204.42894531 555.25394531 -203.85789062 555.50789062 -203.26953125 555.76953125 C-200.73607996 557.14308918 -198.85110637 558.78546953 -196.6875 560.6875 C-190.43905827 565.73572785 -183.54744119 569.29765461 -176 572 C-175.06626305 572.3358011 -174.13252609 572.67160219 -173.17049408 573.01757908 C-160.87041407 576.85272937 -148.72825525 576.55694216 -135.94335938 576.50170898 C-133.43349404 576.50549797 -130.9236308 576.51100277 -128.41377258 576.51808167 C-122.33667142 576.53053903 -116.25985252 576.52452314 -110.18277895 576.50940608 C-103.0879098 576.49243753 -95.99309128 576.49576984 -88.89820808 576.49950016 C-76.22880895 576.50536277 -63.55950956 576.49127029 -50.89013672 576.46655273 C-38.63000755 576.4426367 -26.37001159 576.43555055 -14.10986328 576.44604492 C-0.7208021 576.45748528 12.66819765 576.45934582 26.05725813 576.44494683 C27.48821989 576.44342118 28.91918166 576.44190082 30.35014343 576.44038582 C31.40590469 576.4392491 31.40590469 576.4392491 32.48299447 576.43808941 C37.41439765 576.43337061 42.34577317 576.43518084 47.2771759 576.43945122 C53.92904876 576.44492695 60.5807656 576.4340152 67.23261452 576.41249657 C69.664507 576.40696277 72.09641717 576.4064318 74.52831078 576.41144943 C98.51938341 576.4972872 98.51938341 576.4972872 120.8125 568.375 C121.61655273 567.93696045 122.42060547 567.4989209 123.24902344 567.04760742 C129.63131786 563.45772837 134.90876438 559.27092629 140 554 C140.61617188 553.46375 141.23234375 552.9275 141.8671875 552.375 C149.35642149 545.71790312 153.63446033 535.85234434 158 527 C158.66 527.66 159.32 528.32 160 529 C150.15341362 550.37156815 135.06903344 566.20293591 113 575 C95.84478511 580.96497444 77.6166249 580.15014187 59.70068359 580.14526367 C57.48626652 580.14826171 55.27184997 580.15166571 53.05743408 580.15544128 C47.08189346 580.16422008 41.1063672 580.16661681 35.13082075 580.16725707 C31.38622993 580.16797108 27.64164269 580.17011201 23.89705276 580.17275429 C11.47509604 580.18151254 -0.94685379 580.18617652 -13.36881323 580.18542381 C-14.03584998 580.18538386 -14.70288673 580.1853439 -15.39013672 580.18530273 C-16.05800584 580.18526185 -16.72587497 580.18522097 -17.41398256 580.18517885 C-28.22382235 580.18477289 -39.03362723 580.19433476 -49.84345694 580.2084411 C-60.99386707 580.22287486 -72.14426286 580.22952518 -83.29468286 580.22884732 C-89.53429697 580.2285939 -95.77387151 580.23135834 -102.01347733 580.24202538 C-107.88887957 580.25179693 -113.76420514 580.25172431 -119.63961029 580.24450874 C-121.77872964 580.24347405 -123.917854 580.24575824 -126.05696487 580.2518692 C-136.59911835 580.28000169 -147.03776054 580.07021697 -157.53988647 579.09028625 C-158.3989008 579.01013659 -159.25791513 578.92998692 -160.14296019 578.84740847 C-166.82542409 578.15439402 -172.83528493 576.73228369 -179 574 C-180.13695312 573.505 -181.27390625 573.01 -182.4453125 572.5 C-190.63422101 568.67968847 -197.33264547 564.07281336 -204 558 C-204.70640625 557.38640625 -205.4128125 556.7728125 -206.140625 556.140625 C-222.06904539 541.46641094 -228.88959507 520.31141303 -230.16848707 499.22152138 C-230.44087883 491.97283288 -230.40905294 484.72330583 -230.38818359 477.47070312 C-230.39225858 475.06525943 -230.39760562 472.65981761 -230.40411377 470.25437927 C-230.41628039 464.44659044 -230.41462855 458.63893296 -230.40587585 452.8311404 C-230.39905103 448.10348681 -230.39820308 443.37586574 -230.4014473 438.64820862 C-230.401907 437.97075444 -230.40236669 437.29330025 -230.40284032 436.59531716 C-230.40379967 435.21831619 -230.40477232 433.84131523 -230.4057581 432.46431428 C-230.41427628 419.60611729 -230.40453434 406.74798486 -230.388357 393.88979846 C-230.37495708 382.89964456 -230.37728618 371.90958578 -230.39111328 360.91943359 C-230.40723267 348.10163485 -230.41345264 335.28389243 -230.40427649 322.46608496 C-230.40332102 321.09465377 -230.40237791 319.72322258 -230.4014473 318.35179138 C-230.40098447 317.67733444 -230.40052164 317.0028775 -230.40004479 316.30798247 C-230.39747389 311.5958157 -230.40178444 306.8836852 -230.40888596 302.17152405 C-230.41761905 295.80849319 -230.41141894 289.44564011 -230.39420319 283.08262825 C-230.39027199 280.76206315 -230.39131378 278.44148282 -230.39799118 276.120924 C-230.47114163 248.09272688 -227.08825616 223.96649291 -207.25 202.75 C-199.63947842 195.63386269 -191.16267895 190.2280877 -181.6875 186 C-181.04232422 185.70923584 -180.39714844 185.41847168 -179.73242188 185.11889648 C-178.78786133 184.71973022 -178.78786133 184.71973022 -177.82421875 184.3125 C-177.00570435 183.96638672 -177.00570435 183.96638672 -176.1706543 183.61328125 C-172.82628363 182.66838651 -169.45209458 182.38364076 -166 182 C-166.00444122 181.2315123 -166.00888245 180.4630246 -166.01345825 179.67124939 C-166.05384659 172.36200588 -166.0841406 165.0528179 -166.10362434 157.74349117 C-166.11397843 153.98739221 -166.12798059 150.23138689 -166.15087891 146.4753418 C-166.1729111 142.83782112 -166.18463122 139.20038943 -166.18975449 135.56280708 C-166.19339663 134.18802048 -166.20050502 132.81323769 -166.21146011 131.43848991 C-166.45332336 99.77327493 -156.70586156 69.22399822 -136 45 C-135.34644531 44.22897949 -135.34644531 44.22897949 -134.6796875 43.44238281 C-113.29409476 18.47689187 -81.58304889 0.40368568 -48.55859375 -2.83007812 C-32.42669566 -3.90143319 -15.70981677 -4.20414188 0 0 Z " fill="#022D5F" transform="translate(328,6)"/>
<path d="M0 0 C1.5625 1.875 1.5625 1.875 2 4.875 C1.50282967 8.284168 1.24934906 8.86262745 -1.4375 10.875 C-3.68372899 11.54687584 -5.96115809 12.11690106 -8.25 12.625 C-25.73817265 16.9540499 -39.0435992 26.28451587 -48.48193359 41.5390625 C-57.24545387 56.51330469 -60.32676386 72.97456802 -57.4375 90.0625 C-56.40698182 96.75716125 -56.17881685 103.35494384 -56.125 110.125 C-56.09889648 111.63356567 -56.09889648 111.63356567 -56.07226562 113.17260742 C-56.07836498 122.44134519 -58.22949792 130.08823385 -62.5 138.3125 C-63.00660156 139.30121094 -63.51320312 140.28992188 -64.03515625 141.30859375 C-65.4375 143.875 -65.4375 143.875 -67.4375 146.875 C-67.60463569 149.50031524 -67.60463569 149.50031524 -67.4375 151.875 C-64.49455547 153.54949646 -61.5310087 155.1838197 -58.5625 156.8125 C-57.32886719 157.51536133 -57.32886719 157.51536133 -56.0703125 158.23242188 C-50.16816267 161.43710479 -45.15226949 162.72552433 -38.4375 162.875 C-39.18435709 159.41566136 -40.05326167 157.96194752 -42.6875 155.5625 C-51.09780307 147.44699106 -51.09780307 147.44699106 -51.875 141.5625 C-51.4375 138.875 -51.4375 138.875 -49.4375 136.875 C-45.61116647 136.44183017 -43.27895443 136.37012734 -39.9375 138.375 C-24.18502582 154.12747418 -24.18502582 154.12747418 -23.875 162.625 C-24.18669951 166.43834505 -24.7935561 168.98318636 -27.4375 171.875 C-33.31350711 176.25320138 -39.31873421 176.7730309 -46.4375 175.875 C-55.53005553 174.02174027 -63.31352083 170.08612018 -71.3203125 165.58203125 C-75.97896129 163.03086644 -79.23792648 162.7391167 -84.5 162.75 C-85.74910156 162.74742187 -86.99820313 162.74484375 -88.28515625 162.7421875 C-91.33950713 162.65551724 -91.33950713 162.65551724 -93.4375 163.875 C-100.55449779 164.44895143 -100.55449779 164.44895143 -103.9375 162.25 C-105.88155832 159.17190766 -106.046176 157.45097151 -105.4375 153.875 C-102.43155639 150.99606809 -99.57930915 150.26028152 -95.5625 149.4375 C-86.93199655 147.38710161 -81.47324484 143.11094177 -76.4375 135.875 C-69.50015241 122.45670927 -67.43030485 108.09265606 -70.4375 93.25 C-74.86341439 69.74133877 -69.29482064 49.06938386 -56.203125 29.44921875 C-46.31511844 15.65159258 -34.10382008 6.90333823 -18.125 1.4375 C-17.3721875 1.17815674 -16.619375 0.91881348 -15.84375 0.65161133 C-10.55373692 -1.05067275 -5.27769001 -2.43585693 0 0 Z " fill="#F7F9F9" transform="translate(292.4375,328.125)"/>
<path d="M0 0 C1.269646 0.33862061 1.269646 0.33862061 2.56494141 0.68408203 C33.6946109 9.01576752 62.2620326 19.61848788 86 42 C86.65355469 42.58910156 87.30710937 43.17820312 87.98046875 43.78515625 C96.91831382 52.17014493 110.69906041 67.05604033 112.5 79.4375 C112 82 112 82 110 85 C106.75 85.625 106.75 85.625 103 85 C98.07447743 81.23122894 95.13312466 75.06935385 91.91015625 69.8984375 C82.93460032 56.27908678 71.50330417 45.88656913 58 37 C56.95457031 36.3090625 55.90914062 35.618125 54.83203125 34.90625 C38.57064353 24.92361978 19.27901983 19.17452791 1 14 C-0.17433594 13.6596875 -1.34867188 13.319375 -2.55859375 12.96875 C-10.89262809 10.92544533 -19.0723513 10.69828847 -27.625 10.625 C-28.74519531 10.61098145 -29.86539063 10.59696289 -31.01953125 10.58251953 C-39.02678336 10.62828196 -46.28587326 11.90007191 -54 14 C-55.4862085 14.4031543 -55.4862085 14.4031543 -57.00244141 14.81445312 C-82.26686809 22.02076511 -106.84665038 40.79248932 -124.66796875 59.6953125 C-126.81879493 61.80198682 -128.50179747 62.93772468 -131.5 63.3125 C-134 63 -134 63 -135.8125 61.875 C-137.68499302 58.91843207 -137.65307746 57.46131055 -137 54 C-134.98361223 51.02253021 -132.51807722 48.55580123 -130 46 C-129.39414063 45.32195312 -128.78828125 44.64390625 -128.1640625 43.9453125 C-97.07337656 10.39686482 -45.34718975 -12.75754858 0 0 Z " fill="#F8FAF9" transform="translate(311,259)"/>
<path d="M0 0 C4.54807371 1.01836301 7.9712575 2.73744612 11.98046875 5.05078125 C13.13421997 5.70530273 13.13421997 5.70530273 14.3112793 6.37304688 C31.82940869 16.48863105 48.69108322 28.06156517 63.5859375 41.77734375 C65.68306925 43.70482801 67.8192323 45.57089482 69.98046875 47.42578125 C71.27653788 48.56663252 72.56828296 49.71241656 73.85546875 50.86328125 C74.47808594 51.41886719 75.10070312 51.97445312 75.7421875 52.546875 C90.44303216 66.41278325 99.04501569 84.14773389 105.85546875 102.86328125 C106.2215625 103.745 106.58765625 104.62671875 106.96484375 105.53515625 C108.11359832 108.538041 108.2626111 110.67399947 107.85546875 113.86328125 C106.29296875 116.30078125 106.29296875 116.30078125 103.85546875 117.86328125 C100.35546875 118.17578125 100.35546875 118.17578125 96.85546875 116.86328125 C94.84515523 114.15040141 93.93960967 111.03678188 92.85546875 107.86328125 C82.93305561 80.6832613 68.79077051 61.63326717 45.85546875 43.86328125 C44.86289062 43.06535156 43.8703125 42.26742187 42.84765625 41.4453125 C30.37683923 31.49735863 16.68980596 23.62611119 2.7734375 15.88525391 C1.9175 15.40491699 1.0615625 14.92458008 0.1796875 14.4296875 C-0.96367065 13.7946228 -0.96367065 13.7946228 -2.13012695 13.14672852 C-4.12392765 11.87640852 -5.62274393 10.66938774 -7.14453125 8.86328125 C-7.73442289 5.57674209 -7.42490626 4.28945126 -5.58203125 1.48828125 C-3.14453125 -0.13671875 -3.14453125 -0.13671875 0 0 Z " fill="#F7F8F8" transform="translate(321.14453125,286.13671875)"/>
<path d="M0 0 C1.28310059 -0.00999023 2.56620117 -0.01998047 3.88818359 -0.03027344 C31.96328133 0.22412874 65.84864762 14.43697254 87.9375 31.4375 C90.40090457 34.17050464 90.96299244 34.800189 90.8125 38.5625 C89.9375 41.4375 89.9375 41.4375 86.9375 43.4375 C79.82197488 43.49345433 74.57155746 39.6102043 68.625 36.0625 C35.41305237 16.90365284 4.83526937 7.69329355 -33.0625 17.4375 C-36.53809585 18.41552414 -39.96649602 19.4987775 -43.37109375 20.703125 C-46.39583386 21.52845322 -48.94039427 21.64006257 -52.0625 21.4375 C-53.9375 20.3125 -53.9375 20.3125 -55.0625 18.4375 C-55.5 15.5 -55.5 15.5 -55.0625 12.4375 C-50.62453339 7.01559622 -44.60302704 6.03642958 -38.0625 4.4375 C-37.31742188 4.25123047 -36.57234375 4.06496094 -35.8046875 3.87304688 C-23.91557845 1.01694983 -12.18996148 0.04321772 0 0 Z " fill="#F8F9F9" transform="translate(292.0625,230.5625)"/>
<path d="M0 0 C2.6328125 1.671875 2.6328125 1.671875 5.125 3.75 C5.95257813 4.42546875 6.78015625 5.1009375 7.6328125 5.796875 C13.94463519 11.67124464 13.94463519 11.67124464 14.125 16 C12.21618414 21.09017564 8.96151853 23.06103445 4.25 25.31640625 C1.19154118 26.62327322 -1.88478685 27.83532134 -5 29 C-5.80050781 29.30035156 -6.60101563 29.60070312 -7.42578125 29.91015625 C-27.61190726 37.04521678 -50.41783905 36.16591024 -69.75 27 C-73.44442177 25.10119105 -76.29980865 23.18436359 -79 20 C-79.45742277 16.79804064 -79.55468045 14.92446741 -77.875 12.125 C-75.10127434 10.46076461 -73.21583997 10.72982441 -70 11 C-67.41676166 12.04221267 -65.02810294 13.11084549 -62.5625 14.375 C-54.39417392 18.48842521 -47.3044114 20.36821978 -38.125 20.3125 C-37.20968506 20.30976074 -36.29437012 20.30702148 -35.35131836 20.30419922 C-24.61866081 20.14230217 -14.14043336 18.60479084 -4 15 C-4.825 14.154375 -5.65 13.30875 -6.5 12.4375 C-8.7117134 9.78595723 -9.00746552 8.9449418 -9.5 5.3125 C-9 2 -9 2 -7.875 0 C-5.0011578 -1.53271584 -3.10663721 -0.77287072 0 0 Z " fill="#F8F9F9" transform="translate(289,494)"/>
<path d="M0 0 C20.07335821 16.80663349 33.28077948 39.01128633 36.90771484 65.07543945 C36.96979235 66.69938693 36.99483525 68.32549242 36.97021484 69.95043945 C36.96119141 70.73161133 36.95216797 71.5127832 36.94287109 72.31762695 C36.92546875 73.18774414 36.92546875 73.18774414 36.90771484 74.07543945 C35.404762 71.31963815 34.55799947 68.92930048 34.04833984 65.8371582 C33.90557617 65.02456543 33.7628125 64.21197266 33.61572266 63.37475586 C33.46458008 62.51285645 33.3134375 61.65095703 33.15771484 60.76293945 C29.31199511 40.46852705 20.52719089 23.53018901 5.90771484 9.07543945 C5.11623047 8.27364258 4.32474609 7.4718457 3.50927734 6.64575195 C-5.85782801 -2.34791399 -16.74587041 -8.3434713 -28.84228516 -12.86206055 C-29.59759521 -13.14452637 -30.35290527 -13.42699219 -31.13110352 -13.71801758 C-55.98032462 -22.48200928 -83.72860755 -19.0148251 -107.18945312 -7.88647461 C-130.78257434 4.04025077 -146.61106298 25.25781661 -155.02587891 49.7980957 C-162.83205342 74.56122345 -158.72080615 104.30078276 -159.09228516 128.07543945 C-95.07228516 128.07543945 -31.05228516 128.07543945 34.90771484 128.07543945 C34.90771484 110.91543945 34.90771484 93.75543945 34.90771484 76.07543945 C35.56771484 75.74543945 36.22771484 75.41543945 36.90771484 75.07543945 C36.93298089 82.74755148 36.95054607 90.41965285 36.96264648 98.09179688 C36.96768861 100.70410564 36.9745221 103.31641157 36.9831543 105.92871094 C36.9952252 109.67424214 37.0009442 113.41973617 37.00537109 117.1652832 C37.01053238 118.341306 37.01569366 119.5173288 37.02101135 120.72898865 C37.02108688 121.81003372 37.02116241 122.8910788 37.02124023 124.00488281 C37.02346085 124.9619664 37.02568146 125.91904999 37.02796936 126.90513611 C36.90771484 129.07543945 36.90771484 129.07543945 35.90771484 130.07543945 C33.38065854 130.17540228 30.8808697 130.20985147 28.35327148 130.2024231 C27.55274636 130.20398309 26.75222124 130.20554308 25.92743778 130.20715034 C23.22423059 130.21116363 20.52107879 130.20796943 17.81787109 130.20483398 C15.88833584 130.20618788 13.95880085 130.20796774 12.02926636 130.21014404 C6.7732213 130.21471978 1.51719578 130.21292824 -3.73884964 130.20976496 C-9.22637232 130.20724207 -14.71389327 130.20957869 -20.20141602 130.21115112 C-29.41862286 130.21297303 -38.63582171 130.21056596 -47.85302734 130.20581055 C-58.52588638 130.20036789 -69.19872632 130.20213053 -79.87158489 130.20763695 C-89.01719419 130.21216748 -98.16279772 130.21281893 -107.30840778 130.21019828 C-112.77851487 130.20863518 -118.24861297 130.20844266 -123.71871948 130.21173477 C-128.86008478 130.21461262 -134.00142533 130.21263939 -139.14278793 130.20684052 C-141.0355106 130.20551245 -142.92823533 130.20590781 -144.82095718 130.20810318 C-147.39328067 130.21081288 -149.96552353 130.2074358 -152.5378418 130.2024231 C-153.2968727 130.20465382 -154.05590361 130.20688454 -154.83793545 130.20918286 C-159.97813531 130.1895893 -159.97813531 130.1895893 -161.09228516 129.07543945 C-161.21268252 127.12122042 -161.26253355 125.16262758 -161.28515625 123.20483398 C-161.30121918 121.94486603 -161.3172821 120.68489807 -161.33383179 119.38674927 C-161.34533686 117.99392378 -161.35594238 116.60109062 -161.36572266 115.20825195 C-161.37104633 114.50473476 -161.37637001 113.80121758 -161.38185501 113.07638168 C-161.40866326 109.33275187 -161.42798944 105.58915583 -161.44238281 101.84545898 C-161.45557014 98.78069178 -161.48312 95.71661474 -161.52441406 92.65209961 C-161.90882227 63.45828462 -158.52319058 38.18517379 -139.09228516 15.07543945 C-138.39490234 14.21563477 -137.69751953 13.35583008 -136.97900391 12.4699707 C-103.34690164 -27.18762703 -40.19167894 -32.35750988 0 0 Z " fill="#022655" transform="translate(358.09228515625,57.924560546875)"/>
<path d="M0 0 C1.875 1.0625 1.875 1.0625 3 3 C3.8125 6.1875 3.8125 6.1875 3 10 C0.02269303 13.14378005 -3.46586011 15.51868131 -7 18 C-15.53065805 24.20931277 -23.37961428 30.72791446 -31 38 C-31.82757813 38.77472656 -32.65515625 39.54945313 -33.5078125 40.34765625 C-39.36853536 45.97991025 -43.84409074 52.12806508 -48.25 58.9296875 C-50.84973404 62.92486702 -50.84973404 62.92486702 -53 64 C-58.25465839 64.44720497 -58.25465839 64.44720497 -60.875 62.875 C-62.53882447 60.10195922 -62.30260595 58.20226046 -62 55 C-57.02888411 45.54874262 -49.36897535 37.62156318 -42 30 C-41.31035156 29.27039063 -40.62070313 28.54078125 -39.91015625 27.7890625 C-35.18379121 22.8983862 -30.06987396 18.57554116 -24.72949219 14.37011719 C-23.46110783 13.36529322 -22.19970697 12.35163731 -20.94238281 11.33300781 C-18.70236694 9.51947359 -16.44667078 7.72709381 -14.1875 5.9375 C-13.47021729 5.35266846 -12.75293457 4.76783691 -12.01391602 4.1652832 C-7.96382999 1.00022471 -5.36982845 -0.90168034 0 0 Z " fill="#F7F9F8" transform="translate(226,305)"/>
<path d="M0 0 C3.4375 0.75 3.4375 0.75 5.4375 2.75 C5.64536136 6.7247148 5.23118403 8.71776421 2.78857422 11.89453125 C0.55352865 14.26281892 -1.7568116 16.51494016 -4.125 18.75 C-4.91197266 19.51828125 -5.69894531 20.2865625 -6.50976562 21.078125 C-10.82131582 25.25816047 -15.24796207 29.2783669 -19.79125977 33.20410156 C-22.17107241 35.28114824 -24.45366038 37.45643762 -26.75 39.625 C-43.60502703 55.02051351 -43.60502703 55.02051351 -52.625 56.125 C-55.5625 55.75 -55.5625 55.75 -57.5 54.125 C-58.95449673 50.87377202 -58.52089012 49.15378912 -57.5625 45.75 C-55.4453125 43.6953125 -55.4453125 43.6953125 -52.6875 41.875 C-51.68203125 41.18664062 -50.6765625 40.49828125 -49.640625 39.7890625 C-48.62484375 39.11617187 -47.6090625 38.44328125 -46.5625 37.75 C-33.02495051 28.68394413 -21.57207054 17.00606443 -10.22875977 5.37988281 C-4.63241299 -0.32508161 -4.63241299 -0.32508161 0 0 Z " fill="#F7F8F8" transform="translate(395.5625,479.25)"/>
<path d="M0 0 C0.66 0.66 1.32 1.32 2 2 C-7.84658638 23.37156815 -22.93096656 39.20293591 -45 48 C-61.69777383 53.80591935 -79.37035377 53.15039284 -96.81469727 53.14526367 C-98.8698584 53.14826243 -100.92501898 53.15166659 -102.98017883 53.15544128 C-108.52191636 53.16421334 -114.06363841 53.16661654 -119.6053822 53.16725707 C-123.07995527 53.16797154 -126.5545245 53.17011333 -130.0290966 53.17275429 C-142.18582277 53.18198581 -154.34253802 53.186092 -166.49926758 53.18530273 C-177.77413387 53.1847028 -189.04895218 53.19524376 -200.32380635 53.2110464 C-210.0509137 53.22418669 -219.7780055 53.22948391 -229.50512165 53.22884732 C-235.29372566 53.22859421 -241.08228698 53.23134133 -246.87088203 53.24202538 C-252.32358971 53.25181615 -257.77621486 53.2517116 -263.2289257 53.24450874 C-265.21120705 53.24347633 -267.19349384 53.24574402 -269.17576599 53.2518692 C-282.88801616 53.29143907 -296.36536658 52.46322264 -310 51 C-310 50.67 -310 50.34 -310 50 C-308.73570128 49.99761165 -307.47140257 49.99522329 -306.16879177 49.99276257 C-276.10739828 49.9353118 -246.04608421 49.86251701 -215.98477691 49.77101372 C-212.27883273 49.75974654 -208.57288817 49.74860793 -204.86694336 49.73754883 C-204.12920555 49.73534514 -203.39146775 49.73314146 -202.63137425 49.730871 C-190.71077732 49.69556926 -178.79018046 49.67066501 -166.86955076 49.64965298 C-154.62349234 49.62783401 -142.37750132 49.59472615 -130.1315003 49.55129844 C-122.58467943 49.52488632 -115.03794242 49.50711426 -107.49107767 49.50065396 C-101.68870828 49.49473998 -95.88647726 49.47306392 -90.0841732 49.44572449 C-87.71519035 49.43697663 -85.34618263 49.43321489 -82.9771843 49.43499184 C-59.24009378 49.45408133 -59.24009378 49.45408133 -37.1875 41.375 C-36.38344727 40.93696045 -35.57939453 40.4989209 -34.75097656 40.04760742 C-28.36868214 36.45772837 -23.09123562 32.27092629 -18 27 C-17.38382812 26.46375 -16.76765625 25.9275 -16.1328125 25.375 C-8.64357851 18.71790312 -4.36553967 8.85234434 0 0 Z " fill="#10446C" transform="translate(486,533)"/>
<path d="M0 0 C1.08821045 -0.02231689 2.1764209 -0.04463379 3.29760742 -0.06762695 C4.83251831 -0.06315552 4.83251831 -0.06315552 6.3984375 -0.05859375 C7.31028809 -0.06044678 8.22213867 -0.0622998 9.16162109 -0.06420898 C12.40322059 0.59599785 13.59994626 1.87094306 15.625 4.4375 C16.125 7.5 16.125 7.5 15.625 10.4375 C12.50765995 13.53974729 10.05378107 13.82289538 5.75 13.87890625 C4.02330078 13.91854492 4.02330078 13.91854492 2.26171875 13.95898438 C1.06160156 13.97251953 -0.13851562 13.98605469 -1.375 14 C-17.9851464 14.16329138 -17.9851464 14.16329138 -33.6875 19.0625 C-38.26299537 21.0953872 -41.40138769 22.19435405 -46.375 21.4375 C-48.375 19.4375 -48.375 19.4375 -48.8125 16.0625 C-48.375 12.4375 -48.375 12.4375 -46.171875 10.37109375 C-32.68133032 1.04453004 -15.86585722 0.19770895 0 0 Z " fill="#F7F9F9" transform="translate(286.375,280.5625)"/>
<path d="M0 0 C0.33 0 0.66 0 1 0 C1.73441338 7.0362588 2.14528154 13.97431958 2.12698364 21.04725647 C2.12854363 21.99542266 2.13010362 22.94358885 2.13171089 23.92048734 C2.13566584 27.06427675 2.13255269 30.20801696 2.12939453 33.35180664 C2.13075108 35.61976143 2.13253244 37.88771601 2.13470459 40.15567017 C2.13925055 46.29446686 2.13750055 52.43324668 2.1343255 58.57204366 C2.13178507 65.01648963 2.13414433 71.46093421 2.13571167 77.90538025 C2.13764567 89.4261907 2.13454514 100.94699258 2.12945233 112.46780168 C2.12499257 122.87787093 2.12575501 133.28792901 2.13037109 143.69799805 C2.13574462 155.82170189 2.1377024 167.94539697 2.13475883 180.06910223 C2.13320739 186.47354648 2.13297084 192.87798308 2.13629532 199.28242683 C2.13920704 205.31287644 2.13713831 211.34330521 2.13140106 217.37375259 C2.13009062 219.57379179 2.13043798 221.77383277 2.13266373 223.97387123 C2.14184132 233.97616575 2.10267527 243.9625977 1.58566284 253.95359802 C1.55111657 254.65603388 1.5165703 255.35846974 1.48097718 256.08219153 C1.05382917 263.24338052 0.23612699 271.52774602 -3 278 C-3.66 278 -4.32 278 -5 278 C-4.7882696 277.28147606 -4.57653919 276.56295212 -4.35839272 275.82265472 C-1.22043248 263.57391233 -1.56607227 251.38606598 -1.58349609 238.82226562 C-1.57610696 236.28809204 -1.56739915 233.75392202 -1.55747986 231.21975708 C-1.53905221 225.7873542 -1.52952446 220.35505446 -1.52817917 214.92262268 C-1.52612934 207.06198034 -1.50659562 199.20145429 -1.48278125 191.34085125 C-1.4444828 178.5752282 -1.41860933 165.80961309 -1.40136719 153.04394531 C-1.38460987 140.66698084 -1.36441167 128.29003367 -1.33789062 115.91308594 C-1.3362572 115.14951163 -1.33462378 114.38593732 -1.33294086 113.59922439 C-1.31497045 105.26138464 -1.29561978 96.92354895 -1.27463722 88.58571625 C-1.2727958 87.85291969 -1.27095438 87.12012313 -1.26905716 86.36512062 C-1.26167771 83.43578929 -1.25428363 80.50645801 -1.24671336 77.57712716 C-1.22461009 69.01072895 -1.20679143 60.44434746 -1.19676055 51.87792617 C-1.18962133 45.87664501 -1.17792472 39.87538227 -1.16462898 33.87411118 C-1.16006813 31.41263461 -1.15722277 28.95115419 -1.15620613 26.48967361 C-1.1546357 23.13375551 -1.14705837 19.77790217 -1.13803101 16.42199707 C-1.13963338 14.95674017 -1.13963338 14.95674017 -1.14126813 13.46188211 C-1.12277761 8.85995621 -0.94719771 4.52733893 0 0 Z " fill="#0F2A4B" transform="translate(492,254)"/>
<path d="M0 0 C0.33 0 0.66 0 1 0 C1.02526605 7.67211202 1.04283123 15.3442134 1.05493164 23.01635742 C1.05997377 25.62866619 1.06680725 28.24097211 1.07543945 30.85327148 C1.08751036 34.59880268 1.09322935 38.34429672 1.09765625 42.08984375 C1.10281754 43.26586655 1.10797882 44.44188934 1.11329651 45.65354919 C1.11337204 46.73459427 1.11344757 47.81563934 1.11352539 48.92944336 C1.115746 49.88652695 1.11796661 50.84361053 1.12025452 51.82969666 C1 54 1 54 0 55 C-2.52935252 55.09774692 -5.03137417 55.1299541 -7.56117249 55.12025452 C-8.76301852 55.12153615 -8.76301852 55.12153615 -9.98914427 55.12284368 C-12.69468934 55.12450093 -15.40017346 55.11897314 -18.10571289 55.11352539 C-20.03687031 55.11324355 -21.96802783 55.1134012 -23.89918518 55.1139679 C-29.15929809 55.11425598 -34.41938841 55.10835757 -39.67949605 55.10139394 C-45.17015422 55.09516212 -50.66081284 55.09455674 -56.151474 55.09336853 C-66.55665691 55.0902547 -76.96182937 55.08204063 -87.36700767 55.07201904 C-99.20960946 55.06085949 -111.05221174 55.05534785 -122.89481747 55.05032361 C-147.26321745 55.03985805 -171.63160814 55.02225763 -196 55 C-196 54.01 -196 53.02 -196 52 C-99.475 52.495 -99.475 52.495 -1 53 C-1 35.84 -1 18.68 -1 1 C-0.67 0.67 -0.34 0.34 0 0 Z " fill="#033564" transform="translate(394,133)"/>
<path d="M0 0 C1.875 1.125 1.875 1.125 3 3 C3.5 5.875 3.5 5.875 3 9 C-0.81057777 13.68156697 -4.55774249 16.74735267 -10.625 17.375 C-14 17 -14 17 -16 15.9375 C-17 14 -17 14 -17.3125 10.75 C-15.57983246 5.79952132 -12.95804685 4.19865147 -8.73828125 1.28515625 C-5.56892964 -0.20231405 -3.46250077 -0.32536823 0 0 Z " fill="#F5F7F8" transform="translate(223,254)"/>
<path d="M0 0 C0.99 0.99 0.99 0.99 2 2 C-7.84658638 23.37156815 -22.93096656 39.20293591 -45 48 C-55.0982428 51.51122155 -65.33401411 52.80969221 -76 53 C-77.49950195 53.0306958 -77.49950195 53.0306958 -79.02929688 53.06201172 C-82.41541433 53.122088 -85.8009718 53.15947023 -89.1875 53.1875 C-90.28763428 53.20071289 -91.38776855 53.21392578 -92.52124023 53.22753906 C-94.07887085 53.22898926 -94.07887085 53.22898926 -95.66796875 53.23046875 C-96.59891357 53.23457764 -97.5298584 53.23868652 -98.48901367 53.24291992 C-101.11400286 52.98897104 -102.74654194 52.33253409 -105 51 C-104.07888428 50.98018066 -103.15776855 50.96036133 -102.20874023 50.93994141 C-98.71389603 50.86074681 -95.21939159 50.77403643 -91.72485352 50.68261719 C-90.22687694 50.64488397 -88.7288267 50.60994687 -87.23071289 50.578125 C-77.01235409 50.35859665 -67.10796232 49.62248358 -57 48 C-56.06921631 47.86295654 -55.13843262 47.72591309 -54.17944336 47.5847168 C-48.03284575 46.55047072 -42.96040907 44.40318327 -37.5 41.4375 C-36.67338867 40.99494873 -35.84677734 40.55239746 -34.99511719 40.09643555 C-28.41927985 36.46340844 -23.23127137 32.41590448 -18 27 C-17.38382812 26.46375 -16.76765625 25.9275 -16.1328125 25.375 C-8.64357851 18.71790312 -4.36553967 8.85234434 0 0 Z " fill="#052B5F" transform="translate(486,533)"/>
<path d="M0 0 C18.48699981 -0.12188406 36.96824398 -0.03373235 55.45254517 0.31838989 C57.48599365 0.35616362 59.51950763 0.39056119 61.55307007 0.42160034 C64.4210834 0.4665827 67.28854949 0.52443242 70.15625 0.5859375 C71.02244461 0.59749374 71.88863922 0.60904999 72.78108215 0.62095642 C78.77116247 0.77116247 78.77116247 0.77116247 81 3 C73.68734057 3.04704767 66.37471553 3.08222664 59.06193352 3.10362434 C55.66362917 3.1139117 52.26543084 3.12778213 48.8671875 3.15087891 C32.45058095 3.25408982 16.31591402 2.89600625 0 1 C0 0.67 0 0.34 0 0 Z " fill="#0B3F71" transform="translate(176,583)"/>
<path d="M0 0 C3.84105562 1.14193545 7.34363205 2.63170584 10.9375 4.375 C23.00205471 9.88453677 35.36617779 11.69413813 48.4375 12.75 C49.86273693 12.87509204 51.28786857 13.00138969 52.71289062 13.12890625 C56.14083408 13.43308767 59.56988332 13.72124883 63 14 C63 14.33 63 14.66 63 15 C39.78779771 15.59097545 20.63876685 12.86893639 0 2 C0 1.34 0 0.68 0 0 Z " fill="#02265E" transform="translate(135,571)"/>
<path d="M0 0 C0.66 0.33 1.32 0.66 2 1 C1.63259093 9.08299944 0.74049239 16.36454007 -2 24 C-2.66 24 -3.32 24 -4 24 C-3.79503906 23.10539063 -3.59007812 22.21078125 -3.37890625 21.2890625 C-1.79844445 14.19588943 -0.48479039 7.25513889 0 0 Z " fill="#052E5B" transform="translate(491,508)"/>
<path d="M0 0 C0.99 0.33 1.98 0.66 3 1 C3.94921875 3.984375 3.94921875 3.984375 4.6875 7.75 C4.93886719 8.98234375 5.19023437 10.2146875 5.44921875 11.484375 C5.9081615 14.41379679 6.11830663 17.04796796 6 20 C5.34 19.67 4.68 19.34 4 19 C3.40576172 17.14233398 3.40576172 17.14233398 2.9296875 14.74609375 C2.75566406 13.89208984 2.58164062 13.03808594 2.40234375 12.15820312 C2.22832031 11.26037109 2.05429687 10.36253906 1.875 9.4375 C1.69324219 8.53580078 1.51148438 7.63410156 1.32421875 6.70507812 C0.87513301 4.47146748 0.43410596 2.23656192 0 0 Z " fill="#083565" transform="translate(423,100)"/>
<path d="M0 0 C0.66 0 1.32 0 2 0 C1.87882813 0.59425781 1.75765625 1.18851562 1.6328125 1.80078125 C0.34170672 8.18678908 -0.85385592 14.58647035 -2 21 C-2.66 20.34 -3.32 19.68 -4 19 C-3.828125 16.42578125 -3.828125 16.42578125 -3.25 13.3125 C-3.05148438 12.24128906 -2.85296875 11.17007813 -2.6484375 10.06640625 C-1.92371092 6.63923539 -1.0616557 3.3366322 0 0 Z " fill="#093661" transform="translate(201,105)"/>
<path d="M0 0 C5.24972347 4.10037573 9.20962911 8.52964787 13 14 C12.34 14.66 11.68 15.32 11 16 C10.54109375 15.40832031 10.0821875 14.81664062 9.609375 14.20703125 C8.99578125 13.41683594 8.3821875 12.62664063 7.75 11.8125 C7.11449219 10.99265625 6.47898437 10.1728125 5.82421875 9.328125 C4.4315196 7.5507188 3.0044277 5.80020774 1.5625 4.0625 C0 2 0 2 0 0 Z " fill="#062D64" transform="translate(392,44)"/>
<path d="M0 0 C0 3 0 3 -1.64453125 4.71875 C-2.35996094 5.3065625 -3.07539063 5.894375 -3.8125 6.5 C-6.32004878 8.58277276 -8.73353239 10.65488525 -11 13 C-11.99 12.67 -12.98 12.34 -14 12 C-9.64157559 7.40312076 -5.25723759 3.54058858 0 0 Z " fill="#043167" transform="translate(236,57)"/>
<path d="M0 0 C0.33 0.99 0.66 1.98 1 3 C-1.31 5.31 -3.62 7.62 -6 10 C-6.99 9.67 -7.98 9.34 -9 9 C-6.03 6.03 -3.06 3.06 0 0 Z " fill="#001B59" transform="translate(204,38)"/>
<path d="M0 0 C4.05281712 1.22527029 7.44360764 2.69880494 11 5 C10.34 5.66 9.68 6.32 9 7 C6.03 5.35 3.06 3.7 0 2 C0 1.34 0 0.68 0 0 Z " fill="#042553" transform="translate(135,571)"/>
<path d="M0 0 C0.89203125 0.19464844 1.7840625 0.38929688 2.703125 0.58984375 C3.37859375 0.74582031 4.0540625 0.90179688 4.75 1.0625 C4.75 1.7225 4.75 2.3825 4.75 3.0625 C3.16590006 2.94762252 1.58271037 2.82015492 0 2.6875 C-0.88171875 2.61789062 -1.7634375 2.54828125 -2.671875 2.4765625 C-5.24066382 2.06399945 -7.00841015 1.35089043 -9.25 0.0625 C-5.84598052 -1.07482426 -3.47543336 -0.77739957 0 0 Z " fill="#022655" transform="translate(323.25,4.9375)"/>
<path d="M0 0 C0 1.65 0 3.3 0 5 C-0.99 4.34 -1.98 3.68 -3 3 C-4.65 4.65 -6.3 6.3 -8 8 C-8.66 7.67 -9.32 7.34 -10 7 C-8.90536178 5.82438854 -7.79892814 4.6597511 -6.6875 3.5 C-6.07261719 2.8503125 -5.45773438 2.200625 -4.82421875 1.53125 C-3 0 -3 0 0 0 Z " fill="#486B8E" transform="translate(206,368)"/>
<path d="M0 0 C0.99 0.33 1.98 0.66 3 1 C1.88121617 2.17262904 0.75476949 3.33795138 -0.375 4.5 C-1.00148438 5.1496875 -1.62796875 5.799375 -2.2734375 6.46875 C-4 8 -4 8 -6 8 C-4.55746343 4.63408134 -2.66735273 2.48952921 0 0 Z " fill="#0A3669" transform="translate(470,558)"/>
<path d="M0 0 C0.99 0.66 1.98 1.32 3 2 C1.73160474 2.50615298 0.46016898 3.00469099 -0.8125 3.5 C-1.87404297 3.91765625 -1.87404297 3.91765625 -2.95703125 4.34375 C-5 5 -5 5 -8 5 C-8 4.34 -8 3.68 -8 3 C-6.73637508 2.44172391 -5.4637081 1.90387903 -4.1875 1.375 C-3.47980469 1.07335937 -2.77210938 0.77171875 -2.04296875 0.4609375 C-1.36878906 0.30882812 -0.69460937 0.15671875 0 0 Z " fill="#001F4D" transform="translate(154,189)"/>
</svg>
